<svg height="100%" width="100%" id="svg" viewBox="0 0 1440 600" xmlns="http://www.w3.org/2000/svg" class="transition duration-300 ease-in-out delay-150"><defs><linearGradient id="gradient"><stop offset="5%" stop-color="#eb144c88"></stop><stop offset="95%" stop-color="#eb144c88"></stop></linearGradient></defs><path d="M 0,600 C 0,600 0,200 0,200 C 100.6794258373206,208.28708133971293 201.3588516746412,216.57416267942583 300,206 C 398.6411483253588,195.42583732057417 495.244019138756,165.99043062200957 586,165 C 676.755980861244,164.00956937799043 761.6650717703349,191.4641148325359 869,217 C 976.3349282296651,242.5358851674641 1106.0956937799044,266.1531100478469 1205,263 C 1303.9043062200956,259.8468899521531 1371.9521531100477,229.92344497607655 1440,200 C 1440,200 1440,600 1440,600 Z" stroke="none" stroke-width="0" fill="url(#gradient)" class="transition-all duration-300 ease-in-out delay-150" transform="rotate(-180 720 300)"></path><defs><linearGradient id="gradient"><stop offset="5%" stop-color="#eb144cff"></stop><stop offset="95%" stop-color="#eb144cff"></stop></linearGradient></defs><path d="M 0,600 C 0,600 0,400 0,400 C 91.61722488038276,376.066985645933 183.23444976076553,352.13397129186603 287,371 C 390.76555023923447,389.86602870813397 506.67942583732054,451.5311004784689 614,472 C 721.3205741626795,492.4688995215311 820.0478468899523,471.74162679425837 897,444 C 973.9521531100477,416.25837320574163 1029.1291866028707,381.5023923444976 1116,373 C 1202.8708133971293,364.4976076555024 1321.4354066985647,382.2488038277512 1440,400 C 1440,400 1440,600 1440,600 Z" stroke="none" stroke-width="0" fill="url(#gradient)" class="transition-all duration-300 ease-in-out delay-150" transform="rotate(-180 720 300)"></path></svg>