    <svg height="100%" width="100%" id="svg" viewBox="0 0 1440 600" xmlns="http://www.w3.org/2000/svg"
            class="transition duration-300 ease-in-out delay-150">
            <defs>
                <linearGradient id="gradient">
                    <stop offset="5%" stop-color="#eb144c88"></stop>
                    <stop offset="95%" stop-color="#9900ef88"></stop>
                </linearGradient>
            </defs>
            <path
                d="M 0,600 C 0,600 0,200 0,200 C 30.246006756628503,173.7776689631612 60.49201351325701,147.55533792632238 105,140 C 149.507986486743,132.44466207367762 208.27795270360042,143.5563172578717 254,176 C 299.7220472963996,208.4436827421283 332.3961756723414,262.2193930421909 368,252 C 403.6038243276586,241.78060695780908 442.13734460703375,167.56611057336448 477,168 C 511.86265539296625,168.43388942663552 543.0544458995237,243.51616466435115 581,259 C 618.9455541004763,274.48383533564885 663.6448717948718,230.36923076923077 704,211 C 744.3551282051282,191.63076923076923 780.3660669209892,197.00691225872575 824,208 C 867.6339330790108,218.99308774127425 918.8908605211715,235.60312019586632 967,230 C 1015.1091394788285,224.39687980413368 1060.0704909943252,196.580606957809 1097,203 C 1133.9295090056748,209.419393042191 1162.8271755015278,250.07445197289758 1201,242 C 1239.1728244984722,233.92554802710242 1286.6208069995635,177.1215851506007 1328,162 C 1369.3791930004365,146.8784148493993 1404.6895965002182,173.43920742469965 1440,200 C 1440,200 1440,600 1440,600 Z"
                stroke="none" stroke-width="0" fill="url(#gradient)"
                class="transition-all duration-300 ease-in-out delay-150" transform="rotate(-180 720 300)"></path>
            <defs>
                <linearGradient id="gradient">
                    <stop offset="5%" stop-color="#eb144cff"></stop>
                    <stop offset="95%" stop-color="#9900efff"></stop>
                </linearGradient>
            </defs>
            <path
                d="M 0,600 C 0,600 0,400 0,400 C 35.71573383438668,385.7441448879273 71.43146766877337,371.4882897758545 111,351 C 150.56853233122663,330.5117102241455 193.9898631592933,303.79098578450913 239,331 C 284.0101368407067,358.20901421549087 330.6090796940537,439.347767086109 366,451 C 401.3909203059463,462.652232913891 425.5738180644918,404.81794587105463 459,394 C 492.4261819355082,383.18205412894537 535.0956480479796,419.3804494296723 582,408 C 628.9043519520204,396.6195505703277 680.0435897435898,337.6602564102564 722,338 C 763.9564102564102,338.3397435897436 796.7299929776614,397.9785249293021 839,413 C 881.2700070223386,428.0214750706979 933.0364383457649,398.4256438725351 969,380 C 1004.9635616542351,361.5743561274649 1025.1242536392795,354.3188995805577 1067,360 C 1108.8757463607205,365.6811004194423 1172.466547097117,384.29875780523446 1219,405 C 1265.533452902883,425.70124219476554 1295.0095579722524,448.4860691985044 1329,448 C 1362.9904420277476,447.5139308014956 1401.4952210138738,423.7569654007478 1440,400 C 1440,400 1440,600 1440,600 Z"
                stroke="none" stroke-width="0" fill="url(#gradient)"
                class="transition-all duration-300 ease-in-out delay-150" transform="rotate(-180 720 300)"></path>
                    
    </svg>



